<svg id="Capa_1" enable-background="new 0 0 511.992 511.992" height="512" viewBox="0 0 511.992 511.992" width="512" xmlns="http://www.w3.org/2000/svg"><g><path d="m255.996 26.454c-.613 0-1.226.008-1.838.008-5.513 0-82.883 31.28-118.524 60.825-33.318 27.619-70.466 52.467-81.543 95.671-4.256 16.599-6.519 33.996-6.519 51.921 0 10.495.776 20.807 2.273 30.885l39.462 124.167 11.685 40.081 73.147 35.429 213.099-10.815 74.907-188.845c.789-5.307 1.378-10.678 1.759-16.107.343-4.887-7.039-14.773-7.039-19.747 0-68.347-25.341-124.058-76.166-162.066-34.774-26.007-77.94-41.407-124.703-41.407z" fill="#bed8fb"/><path d="m336.139 42.42c46.965 38.217 76.966 96.478 76.966 161.747 0 16.921-2.017 33.369-5.823 49.121 5.687-2.628 12.63 12.576 19.393 12.493 14.581-.178 26.942-10.311 35.469 0 .789-5.307 1.378-10.678 1.759-16.108.343-4.887-32.381-143.805-83.205-181.813-13.656-10.212-28.605-18.789-44.559-25.44z" fill="#9dc6fb"/><path d="m344.901 118.106c-5.342 3.589-6.208 11.103-1.823 15.813l1.397 1.5c14.547 15.625 18.959 38.155 11.38 58.113-2.975 7.835 2.383 16.337 10.735 17.033l12.137 1.011c23.26 1.938 45.577 10.072 64.629 23.555l20.549 14.542c.343-4.887.517-9.82.517-14.794 0-68.347-32.898-129.011-83.723-167.019l-3.905 10.197c-6.25 16.317-17.389 30.305-31.893 40.049z" fill="#95d6a4"/><path d="m380.698 67.86-3.905 10.197c-.689 1.8-1.438 3.571-2.245 5.312 24.277 34.077 38.557 75.77 38.557 120.799 0 4.991-.176 9.942-.521 14.845 10.881 3.962 21.234 9.37 30.771 16.119l20.549 14.542c.343-4.887.517-9.82.517-14.794 0-68.348-32.898-129.011-83.723-167.02z" fill="#78c2a4"/><path d="m94.073 172.756 5.775-3.244c4.958-2.785 10.829 1.756 9.379 7.255l-4.751 18.014c-3.592 13.621-.937 28.135 7.246 39.602l11.642 16.315c4.232 5.93 5.441 13.5 3.266 20.453l-.702 2.246c3.974 7.414 3.144 54.386 3.144 54.386 5.023 8.135 12.181 15.051 21.097 19.826 6.921 3.706 15.516 1.727 20.118-4.633l31.361-43.339c2.681-3.705 5.609-7.211 8.759-10.495 8.303-10.694 21.368-20.652 30.38-37.534-.995-3.636-3.16-7.022-6.534-9.545l-8.413-6.292c-16.959-12.684-29.604-30.279-36.218-50.397l-3.117-9.479c-4.386-13.339-.136-28.001 10.703-36.927 7.856-6.469 12.407-16.113 12.407-26.289v-21.606c0-8.124 2.904-15.98 8.188-22.15l36.356-42.459c-96.375.832-177.141 67.073-200.069 156.494 13.869.168 27.673-3.287 39.983-10.202z" fill="#95d6a4"/><path d="m393.382 389.988c5.332-.019 9.842-4.472 9.842-9.982v-9.945c.005.003.01.007.015.01-9.836-6.724-18.448-16.891-19.347-29.1l-2.087-28.336-.63-8.55-.376-5.111c-.873-11.858 2.624-22.922 9.121-31.603-4.925.248-9.83 1.45-14.432 3.631l-1.234.585c-8.072 3.824-17.416 3.915-25.562.25l-8.854-3.985c-8.027-3.613-17.489-.682-22.068 6.836l-9.583 15.733c-8.518 13.983-6.203 32.003 5.573 43.379l11.135 10.757c7.862 7.595 6.601 20.531-2.579 26.466-7.066 4.568-12.405 11.222-15.372 18.912h1.227c18.312 0 33.157 14.844 33.16 33.155.003-18.311 14.848-33.155 33.16-33.155h18.807z" fill="#95d6a4"/><path d="m405.963 409.704c5.361.018 12.981-45.187 12.986-45.183-9.836-6.724-37.051-50.598-37.051-50.598-17.953 28.927-42.791 53.134-72.225 70.331-1.058 1.813-1.973 3.712-2.731 5.679 0 0 29.194 36.801 29.197 55.112.003-18.311 69.824-35.341 69.824-35.341z" fill="#78c2a4"/><path d="m279.435 380.004v-9.944c-8.217 5.621-38.661 5.621-46.878 0v9.944c0 5.483-4.445 9.927-9.927 9.927l28.571 33.263h9.59l28.571-33.263c-5.483 0-9.927-4.445-9.927-9.927z" fill="#ffddce"/><path d="m85.332 424.576c17.98 0 36.663-20.377 39.367-34.645h-6.002c-5.482 0-9.927-4.444-9.927-9.927v-9.945c-8.217 5.621-38.661 5.621-46.878 0v9.945c0 5.483-4.445 9.927-9.927 9.927h-6.001c-1.197 16.631 21.388 34.645 39.368 34.645z" fill="#ffe4c1"/><circle cx="256.012" cy="434.03" r="7.726"/><circle cx="256.012" cy="459.784" r="7.726"/><circle cx="256.012" cy="434.03" r="7.726"/><circle cx="256.012" cy="459.784" r="7.726"/><g fill="#9dc6fb"><path d="m341.328 454.626v-31.536c0-18.313-14.846-33.159-33.159-33.159h-18.807l-27.267 17.507c-.852.547-1.842.837-2.854.837h-6.49c-1.012 0-2.003-.291-2.854-.837l-27.267-17.507h-18.807c-18.313 0-33.159 14.846-33.159 33.159v31.535l30.132 30.912h110.4z"/><path d="m193.07 477.808c-4.268 0-7.726-3.459-7.726-7.726v-23.666c0-4.268 3.459-7.726 7.726-7.726 4.268 0 7.726 3.459 7.726 7.726v23.666c0 4.267-3.458 7.726-7.726 7.726z"/><path d="m318.922 480.001c-4.268 0-7.726-3.459-7.726-7.726v-25.859c0-4.268 3.459-7.726 7.726-7.726 4.268 0 7.726 3.459 7.726 7.726v25.859c0 4.267-3.458 7.726-7.726 7.726z"/></g><path d="m478.833 389.931h-18.807l-28.571 29.347h-9.59l-28.571-29.347h-18.807c-18.313 0-33.159 14.846-33.159 33.159v59.756c0 1.486 1.205 2.691 2.691 2.691h165.281c1.487 0 2.692-1.205 2.692-2.692v-59.755c0-18.313-14.846-33.159-33.159-33.159z" fill="#617881"/><path d="m450.099 380.004v-9.944c-8.217 5.621-38.661 5.621-46.878 0v9.944c0 5.483-4.445 9.927-9.927 9.927l33.382 48.758 33.35-48.758c-5.482 0-9.927-4.445-9.927-9.927z" fill="#d59b8b"/><path d="m222.63 389.931-8.805 28.499c-.952 3.082 2.25 5.806 5.139 4.371l30.933-15.362z" fill="#bed8fb"/><path d="m289.362 389.931 8.805 28.499c.952 3.082-2.25 5.806-5.139 4.371l-30.933-15.362z" fill="#bed8fb"/><path d="m435.49 405.685c-2.634 1.691-5.699 2.591-8.829 2.591-3.131 0-6.195-.899-8.83-2.591l-24.536-15.754 33.366 95.607 33.366-95.607z" fill="#f1eaf9"/><path d="m137.505 389.931h-12.805c-6.04 14.569-21.388 24.921-39.367 24.921s-33.329-10.352-39.368-24.921h-12.806c-18.313 0-33.159 14.846-33.159 33.159v59.756c0 1.486 1.205 2.691 2.691 2.691h165.281c1.486 0 2.692-1.205 2.692-2.691v-59.756c0-18.313-14.846-33.159-33.159-33.159z" fill="#e28086"/><path d="m114.411 277.077c-6.796-6.796-54.287-7.345-61.083-.549l-13.447 28.059.593 8.048 2.087 28.336c1.65 22.403 29.269 37.928 42.771 37.928s41.121-15.525 42.771-37.928l2.061-27.984.38-5.164z" fill="#fff1dd"/><path d="m239.938 268.489-28.806 44.059.006.087 2.087 28.336c1.65 22.403 29.269 37.928 42.771 37.928s41.121-15.525 42.771-37.928l2.061-27.984.875-11.876s-50.83-20.715-61.765-32.622z" fill="#ffece4"/><path d="m426.081 249.075c-26.887.329-47.26 23.083-45.285 49.899l3.093 41.996c1.65 22.403 29.269 37.928 42.771 37.928s41.121-15.525 42.771-37.928l3.129-42.493c1.98-26.87-19.455-49.733-46.479-49.402z" fill="#dfaca0"/><path d="m37.859 446.415c0-4.268-3.459-7.726-7.726-7.726s-7.726 3.459-7.726 7.726v39.122h15.452z" fill="#dd636e"/><path d="m148.258 446.415c0-4.268-3.459-7.726-7.726-7.726-4.268 0-7.726 3.459-7.726 7.726v39.122h15.452z" fill="#dd636e"/><path d="m85.348 343.53c-4.268 0-7.726-3.459-7.726-7.726s3.459-7.726 7.726-7.726c.106 0 .192-.087.192-.193v-5.658c0-4.268 3.459-7.726 7.726-7.726s7.726 3.459 7.726 7.726v5.658c0 8.626-7.018 15.645-15.644 15.645z" fill="#ffe4c1"/><path d="m256.011 343.53c-4.268 0-7.726-3.459-7.726-7.726s3.459-7.726 7.726-7.726c.107 0 .193-.087.193-.193v-5.658c0-4.268 3.459-7.726 7.726-7.726s7.726 3.459 7.726 7.726v5.658c.001 8.626-7.018 15.645-15.645 15.645z" fill="#ffddce"/><path d="m379.186 446.415c0-4.268-3.459-7.726-7.726-7.726-4.268 0-7.726 3.459-7.726 7.726v39.122h15.452z" fill="#475959"/><path d="m489.586 446.415c0-4.268-3.459-7.726-7.726-7.726-4.268 0-7.726 3.459-7.726 7.726v39.122h15.452z" fill="#475959"/><path d="m426.676 343.53c-4.268 0-7.726-3.459-7.726-7.726s3.459-7.726 7.726-7.726c.106 0 .192-.087.192-.193v-5.658c0-4.268 3.459-7.726 7.726-7.726s7.726 3.459 7.726 7.726v5.658c0 8.626-7.018 15.645-15.644 15.645z" fill="#d59b8b"/><path d="m77.939 291.14 2.258 2.258c2.18 2.18 5.714 2.18 7.893 0l1.709-1.709c6.796-6.796 17.815-6.796 24.611 0l16.134 16.134.688-9.345c1.979-26.871-19.456-49.733-46.48-49.402-26.887.329-47.26 23.083-45.285 49.899l.413 5.613 13.447-13.447c6.797-6.798 17.816-6.798 24.612-.001z" fill="#617881"/><path d="m242.909 284.241c10.801 10.801 25.451 16.869 40.726 16.869h18.067l.194-2.633c1.979-26.871-19.456-49.733-46.48-49.402-26.887.329-47.26 23.083-45.285 49.899l1 13.574 28.307-28.307c.959-.958 2.513-.958 3.471 0z" fill="#ffd064"/><path d="m170.664 454.626v28.221c0 1.486 1.205 2.691 2.691 2.691h27.441v-30.912z" fill="#ffece4"/><path d="m311.196 454.626v30.912h27.441c1.486 0 2.692-1.205 2.692-2.691v-28.221z" fill="#ffece4"/><circle cx="256.012" cy="434.03" fill="#f9f6f9" r="7.726"/><circle cx="256.012" cy="459.784" fill="#f9f6f9" r="7.726"/></g></svg>