<?xml version="1.0" encoding="UTF-8"?>
<svg xmlns="http://www.w3.org/2000/svg" xmlns:xlink="http://www.w3.org/1999/xlink" width="375pt" height="374.999991pt" viewBox="0 0 375 374.999991" version="1.2">
<defs>
<clipPath id="clip1">
  <path d="M 112.5 84.402344 L 248.777344 84.402344 L 248.777344 218.605469 L 112.5 218.605469 Z M 112.5 84.402344 "/>
</clipPath>
</defs>
<g id="surface1">
<g clip-path="url(#clip1)" clip-rule="nonzero">
<path style=" stroke:none;fill-rule:nonzero;fill:rgb(0%,0%,0%);fill-opacity:1;" d="M 173.671875 181.273438 C 173.667969 181.273438 173.660156 181.269531 173.65625 181.269531 C 173.65625 181.277344 173.65625 181.28125 173.660156 181.289062 C 173.667969 181.28125 173.667969 181.28125 173.671875 181.273438 Z M 113 135.144531 C 115.410156 135.738281 117.820312 136.304688 120.230469 136.886719 C 121.242188 137.128906 122.253906 137.375 123.269531 137.625 C 124.359375 137.894531 124.367188 137.894531 124.386719 138.960938 C 124.492188 144.816406 124.59375 150.667969 124.6875 156.519531 C 124.722656 158.808594 124.710938 158.808594 126.824219 159.753906 C 131.070312 161.664062 135.300781 163.59375 139.5625 165.460938 C 140.40625 165.828125 140.828125 166.335938 141.066406 167.199219 C 142.957031 174.007812 144.878906 180.804688 146.792969 187.601562 C 146.8125 187.6875 146.828125 187.769531 146.851562 187.859375 C 147.203125 189.03125 147.285156 189.082031 148.375 188.574219 C 150.972656 187.355469 153.558594 186.117188 156.152344 184.894531 C 160.003906 183.070312 163.867188 181.277344 167.695312 179.410156 C 168.515625 179.007812 169.082031 179.085938 169.816406 179.59375 C 179.53125 186.335938 189.269531 193.046875 199.003906 199.765625 C 199.21875 199.910156 199.425781 200.070312 199.640625 200.21875 C 199.890625 200.394531 199.953125 200.605469 199.777344 200.875 C 199.679688 201.019531 199.613281 201.179688 199.53125 201.335938 C 197.515625 205.25 197.804688 209.058594 200.203125 212.675781 C 203.820312 218.136719 211.425781 220.164062 217.351562 217.332031 C 223.183594 214.546875 225.300781 207.847656 222.121094 202.242188 C 218.453125 195.789062 209.449219 193.511719 203.238281 197.464844 C 202.5 197.933594 201.789062 198.445312 201.226562 199.109375 C 200.75 199.679688 200.375 199.597656 199.820312 199.210938 C 196.542969 196.914062 193.246094 194.65625 189.953125 192.382812 C 185.050781 188.996094 180.144531 185.617188 175.25 182.222656 C 174.910156 181.988281 174.46875 181.84375 174.308594 181.394531 C 174.824219 181.292969 175.214844 181.625 175.636719 181.808594 C 183.6875 185.425781 191.730469 189.046875 199.78125 192.664062 C 200.175781 192.84375 200.589844 192.992188 200.96875 193.199219 C 201.480469 193.476562 201.878906 193.355469 202.238281 192.949219 C 202.441406 192.722656 202.664062 192.515625 202.878906 192.296875 C 210.152344 185.003906 217.421875 177.703125 224.699219 170.414062 C 225.089844 170.023438 225.429688 169.578125 225.988281 169.347656 C 226.441406 169.15625 226.417969 168.722656 226.011719 168.457031 C 225.871094 168.363281 225.695312 168.332031 225.535156 168.261719 C 199.371094 157.589844 173.210938 146.914062 147.050781 136.242188 C 145.222656 135.496094 145.257812 135.496094 144.996094 137.363281 C 144.183594 143.070312 143.34375 148.773438 142.519531 154.480469 C 142.074219 157.570312 141.621094 160.65625 141.175781 163.746094 C 141.144531 163.960938 141.132812 164.175781 141.089844 164.390625 C 141.003906 164.800781 140.785156 165.003906 140.351562 164.796875 C 140.152344 164.699219 139.949219 164.621094 139.753906 164.53125 C 135.429688 162.589844 131.121094 160.625 126.777344 158.730469 C 125.917969 158.355469 125.667969 157.882812 125.660156 156.980469 C 125.597656 151.085938 125.433594 145.191406 125.398438 139.289062 C 125.390625 137.609375 125.136719 135.9375 125.3125 134.257812 C 125.375 133.660156 125.175781 133.378906 124.535156 133.15625 C 121.566406 132.117188 118.464844 131.625 115.433594 130.875 C 114.757812 130.707031 114.082031 130.527344 113.398438 130.402344 C 112.671875 130.269531 112.460938 130.433594 112.367188 131.175781 C 112.25 132.078125 112.15625 132.984375 112.09375 133.894531 C 112.027344 134.839844 112.066406 134.910156 113 135.144531 Z M 200.300781 201.882812 C 200.730469 201.089844 200.859375 201.070312 201.582031 201.554688 C 202.738281 202.332031 203.863281 203.160156 205.027344 203.914062 C 205.539062 204.242188 205.574219 204.539062 205.328125 205.078125 C 204.03125 207.902344 205.867188 211.28125 209.207031 212.019531 C 212.039062 212.648438 214.808594 210.980469 215.46875 208.265625 C 216.09375 205.691406 214.3125 202.933594 211.566406 202.234375 C 209.867188 201.800781 208.285156 202.074219 206.859375 203.113281 C 206.554688 203.335938 206.308594 203.683594 205.84375 203.355469 C 204.394531 202.339844 202.929688 201.339844 201.488281 200.351562 C 201.6875 199.859375 202 199.613281 202.292969 199.359375 C 202.6875 199.015625 203.09375 198.683594 203.523438 198.394531 C 209.171875 194.605469 217.613281 196.546875 221.140625 202.4375 C 224.324219 207.761719 222.347656 214.042969 216.671875 216.613281 C 214.027344 217.808594 211.269531 218.007812 208.507812 217.285156 C 204.140625 216.140625 200.980469 213.578125 199.566406 209.179688 C 198.75 206.652344 199.042969 204.207031 200.300781 201.882812 Z M 142.109375 165.140625 C 143.214844 164.421875 144.171875 163.363281 145.644531 163.378906 C 148.714844 163.363281 151.4375 165.554688 152.019531 168.515625 C 152.089844 168.859375 152.125 169.203125 152.007812 169.542969 C 151.941406 169.75 151.824219 170 151.566406 169.910156 C 151.042969 169.714844 150.515625 169.496094 150.03125 169.21875 C 149.589844 168.960938 149.886719 168.503906 149.863281 168.140625 C 149.773438 166.496094 148.710938 165.394531 147.058594 165.289062 C 146.152344 165.226562 145.3125 165.429688 144.664062 166.097656 C 144.269531 166.503906 143.890625 166.574219 143.398438 166.296875 C 143.023438 166.078125 142.609375 165.933594 142.21875 165.746094 C 141.925781 165.597656 141.824219 165.320312 142.109375 165.140625 Z M 147.957031 166.394531 C 148.726562 166.777344 149 167.414062 148.867188 168.734375 C 147.765625 168.238281 146.785156 167.800781 145.804688 167.351562 C 145.578125 167.25 145.359375 167.109375 145.125 166.972656 C 145.96875 166.136719 147.023438 165.929688 147.957031 166.394531 Z M 220.132812 171.390625 L 151.8125 143.074219 C 149.964844 142.308594 148.117188 141.546875 146.273438 140.769531 C 145.929688 140.625 145.457031 140.542969 145.558594 140.003906 C 145.738281 138.992188 145.707031 137.9375 146.125 136.871094 C 172.332031 147.574219 198.480469 158.25 224.695312 168.953125 C 224.171875 169.710938 223.53125 170.230469 222.960938 170.8125 C 221.742188 172.0625 221.738281 172.050781 220.132812 171.390625 Z M 200.652344 186.242188 C 199.472656 184.765625 197.890625 184.226562 196.105469 184.03125 C 194.183594 183.824219 192.765625 184.882812 191.308594 186.023438 C 190.675781 183.152344 189.816406 180.511719 186.96875 179.320312 C 184.214844 178.175781 181.601562 178.875 179.035156 180.484375 C 178.484375 177.484375 176.632812 175.621094 173.980469 174.4375 C 171.273438 173.234375 168.597656 173.589844 165.898438 174.703125 C 165.828125 174.222656 165.785156 173.839844 165.710938 173.464844 C 165.351562 171.695312 164.539062 170.175781 162.972656 169.210938 C 160.980469 167.976562 158.820312 167.511719 156.472656 168.039062 C 155.339844 168.296875 154.242188 168.671875 153.101562 169.046875 C 153.019531 168.75 152.949219 168.546875 152.910156 168.339844 C 152.253906 164.894531 149.503906 162.789062 146.023438 162.429688 C 145.128906 162.332031 144.300781 162.539062 143.535156 163.03125 C 143.148438 163.28125 142.816406 163.667969 142.144531 163.648438 C 143.203125 156.273438 144.265625 148.921875 145.351562 141.390625 C 170.605469 151.859375 195.710938 162.265625 221.097656 172.789062 C 214.726562 178.992188 208.578125 184.984375 202.378906 191.019531 C 202.421875 189.28125 201.800781 187.679688 200.652344 186.242188 Z M 156.804688 171.226562 C 155.886719 171.835938 155.132812 171.667969 154.296875 171.199219 C 153.886719 170.96875 153.445312 170.785156 152.785156 170.46875 C 154.164062 169.496094 155.558594 169.207031 156.941406 168.898438 C 158.96875 168.453125 160.859375 168.933594 162.523438 170.046875 C 164.234375 171.1875 164.945312 172.925781 164.875 174.96875 C 164.871094 175.25 164.886719 175.675781 164.480469 175.667969 C 163.957031 175.664062 163.503906 175.335938 163.050781 175.089844 C 162.699219 174.894531 162.90625 174.546875 162.894531 174.265625 C 162.789062 172.296875 161.777344 171.140625 159.835938 170.804688 C 158.78125 170.621094 157.691406 170.640625 156.804688 171.226562 Z M 161.15625 172.261719 C 161.808594 172.855469 162.175781 173.589844 161.925781 174.609375 C 160.296875 173.878906 158.757812 173.1875 157.21875 172.492188 C 157.113281 172.445312 157.035156 172.328125 156.863281 172.167969 C 158.546875 171.417969 160.261719 171.453125 161.15625 172.261719 Z M 194.214844 189.132812 C 195.238281 188.035156 196.074219 187.863281 197.269531 188.425781 C 198.375 188.953125 198.914062 189.921875 198.722656 191.171875 C 197.210938 190.488281 195.726562 189.820312 194.214844 189.132812 Z M 191.199219 187.761719 C 193.554688 184.652344 195.875 184.34375 198.527344 185.601562 C 200.828125 186.695312 202.074219 189.957031 201.234375 192.210938 C 200.195312 192.074219 199.722656 191.574219 199.664062 190.441406 C 199.589844 189.035156 198.683594 188.074219 197.375 187.539062 C 196.152344 187.039062 194.929688 187.039062 193.992188 188.03125 C 193.375 188.683594 192.882812 188.667969 192.21875 188.25 C 191.925781 188.070312 191.59375 187.949219 191.199219 187.761719 Z M 182.523438 183.867188 C 183.15625 183.171875 183.632812 182.835938 184.113281 182.714844 C 185.542969 182.359375 187.058594 183.691406 186.742188 185.027344 C 186.652344 185.394531 186.503906 185.683594 186.035156 185.472656 C 184.875 184.9375 183.714844 184.410156 182.523438 183.867188 Z M 179.003906 182.265625 C 181.007812 179.277344 186.070312 178.863281 188.339844 181.417969 C 189.4375 182.652344 190.039062 184.140625 190.238281 185.765625 C 190.425781 187.269531 190.261719 187.363281 188.832031 186.722656 C 188.554688 186.597656 188.285156 186.453125 188 186.351562 C 187.503906 186.175781 187.351562 185.917969 187.515625 185.371094 C 187.789062 184.488281 187.574219 183.664062 186.976562 182.9375 C 185.859375 181.578125 184.199219 181.257812 182.703125 182.507812 C 181.613281 183.417969 180.792969 183.285156 179.78125 182.664062 C 179.558594 182.527344 179.320312 182.425781 179.003906 182.265625 Z M 173.636719 181.222656 C 173.640625 181.222656 173.644531 181.21875 173.65625 181.214844 C 173.675781 181.199219 173.691406 181.199219 173.695312 181.210938 C 173.738281 181.167969 173.753906 181.15625 173.738281 181.1875 C 173.722656 181.222656 173.714844 181.238281 173.703125 181.246094 C 173.703125 181.246094 173.691406 181.257812 173.671875 181.28125 C 173.679688 181.28125 173.691406 181.28125 173.695312 181.28125 C 173.902344 181.222656 174.136719 181.042969 174.273438 181.367188 C 174.277344 181.363281 174.277344 181.359375 174.277344 181.359375 C 174.277344 181.359375 174.285156 181.382812 174.289062 181.394531 C 174.292969 181.394531 174.296875 181.394531 174.300781 181.394531 L 174.289062 181.40625 C 174.289062 181.402344 174.289062 181.398438 174.285156 181.394531 C 174.273438 181.398438 174.253906 181.398438 174.253906 181.398438 C 174.253906 181.398438 174.257812 181.394531 174.261719 181.386719 C 174.074219 181.351562 173.878906 181.316406 173.691406 181.28125 C 173.679688 181.285156 173.667969 181.289062 173.65625 181.292969 C 173.65625 181.292969 173.632812 181.273438 173.632812 181.269531 C 173.636719 181.265625 173.640625 181.261719 173.644531 181.253906 C 173.644531 181.242188 173.640625 181.230469 173.636719 181.222656 C 173.558594 181.28125 173.597656 181.191406 173.636719 181.222656 Z M 170.265625 178.363281 C 172.347656 176.945312 174.667969 178.035156 174.941406 180.46875 C 173.375 179.765625 171.871094 179.085938 170.265625 178.363281 Z M 167.34375 177.058594 C 166.847656 176.792969 166.324219 176.585938 165.648438 176.28125 C 167.121094 174.910156 168.753906 174.660156 170.480469 174.632812 C 173.8125 174.574219 176.996094 176.847656 177.949219 180.011719 C 178.105469 180.535156 178.472656 181.210938 177.929688 181.578125 C 177.441406 181.910156 176.914062 181.300781 176.402344 181.121094 C 176.035156 180.996094 176.101562 180.636719 176.03125 180.355469 C 175.808594 179.449219 175.34375 178.675781 174.714844 178 C 173.570312 176.765625 171.875 176.28125 170.453125 177.148438 C 169.265625 177.871094 168.367188 177.601562 167.34375 177.058594 Z M 141.941406 166.886719 C 143.261719 167.113281 166.878906 177.785156 167.566406 178.445312 C 167.238281 178.605469 166.933594 178.761719 166.621094 178.910156 C 160.730469 181.695312 154.839844 184.484375 148.953125 187.273438 C 147.804688 187.816406 147.796875 187.8125 147.441406 186.542969 C 145.953125 181.246094 144.460938 175.949219 142.972656 170.652344 C 142.625 169.414062 142.296875 168.175781 141.941406 166.886719 Z M 147.351562 98.589844 C 147.347656 98.585938 147.34375 98.585938 147.339844 98.582031 C 147.34375 98.582031 147.347656 98.578125 147.351562 98.574219 C 147.351562 98.582031 147.351562 98.582031 147.351562 98.589844 Z M 176.453125 145.226562 C 177 144.132812 177.015625 142.953125 176.933594 141.792969 C 176.710938 138.660156 176.03125 135.632812 174.972656 132.652344 C 173.152344 127.527344 170.734375 122.671875 168.460938 117.75 C 167.917969 116.578125 167.25 115.460938 166.582031 114.355469 C 165.863281 113.160156 164.828125 112.332031 163.417969 112.089844 C 162.867188 111.996094 162.628906 111.789062 162.613281 111.210938 C 162.566406 109.304688 162.015625 107.515625 161.261719 105.78125 C 160.796875 104.707031 160.378906 103.644531 160.277344 102.445312 C 160.171875 101.277344 159.65625 100.1875 159.03125 99.191406 C 158.121094 97.742188 157.179688 96.3125 156.203125 94.902344 C 155.585938 94.007812 155.496094 94.023438 154.464844 94.597656 C 153.523438 93.171875 152.519531 91.792969 151.449219 90.457031 C 151.03125 89.9375 150.613281 89.410156 150.078125 89 C 149.332031 88.425781 149.035156 88.527344 148.792969 89.429688 C 148.753906 89.582031 148.722656 89.734375 148.664062 89.992188 C 147.1875 88.683594 145.5625 87.742188 143.960938 86.769531 C 143.816406 86.683594 143.675781 86.59375 143.53125 86.511719 C 143.132812 86.292969 142.738281 85.945312 142.257812 86.195312 C 141.644531 86.519531 142.117188 87.085938 142.027344 87.59375 C 141.632812 87.613281 141.335938 87.359375 141.015625 87.210938 C 138.769531 86.183594 136.515625 85.183594 134.109375 84.582031 C 133.90625 84.53125 133.707031 84.449219 133.503906 84.421875 C 133.164062 84.375 132.804688 84.378906 132.597656 84.699219 C 132.398438 85.015625 132.519531 85.335938 132.699219 85.640625 C 133 86.148438 133.375 86.597656 133.804688 87 C 135.625 88.722656 137.398438 90.507812 139.625 91.734375 C 139.957031 91.917969 140.269531 92.070312 140.105469 92.585938 C 139.867188 93.320312 140.273438 93.871094 140.773438 94.355469 C 141.289062 94.855469 141.898438 95.226562 142.542969 95.53125 C 143.261719 95.867188 143.988281 96.191406 144.710938 96.519531 C 145.03125 96.664062 145.289062 96.816406 145.199219 97.253906 C 144.980469 98.328125 145.628906 98.859375 146.488281 99.273438 C 148.265625 100.136719 150.191406 100.585938 152.054688 101.210938 C 153.996094 101.863281 155.90625 102.609375 157.804688 103.378906 C 159.089844 103.902344 160.042969 104.691406 160.507812 106.101562 C 160.996094 107.566406 161.578125 108.992188 161.765625 110.539062 C 161.808594 110.917969 161.835938 111.28125 161.730469 111.855469 C 160.117188 109.160156 157.507812 107.820312 155.25 106.089844 C 154.539062 105.539062 153.820312 104.914062 152.816406 104.902344 C 152.554688 104.898438 152.378906 104.667969 152.195312 104.507812 C 150.039062 102.59375 147.503906 101.320312 144.871094 100.210938 C 143.636719 99.695312 143.484375 99.789062 143.34375 101.125 C 142.800781 101.15625 142.476562 100.71875 142.054688 100.496094 C 141.386719 100.144531 140.722656 99.789062 139.996094 99.578125 C 139.085938 99.316406 138.945312 99.40625 138.492188 100.441406 C 136.796875 99.652344 134.984375 99.199219 133.167969 98.78125 C 132.144531 98.546875 131.117188 98.359375 130.089844 98.167969 C 129.632812 98.078125 129.167969 98.082031 128.714844 98.179688 C 128.121094 98.304688 127.902344 98.800781 128.269531 99.285156 C 128.492188 99.578125 128.8125 99.808594 129.089844 100.058594 C 131.210938 101.964844 133.671875 103.246094 136.425781 104 C 137.140625 104.199219 137.878906 104.367188 138.601562 104.742188 C 138.171875 105.230469 137.738281 105.625 137.421875 106.101562 C 136.878906 106.914062 137.15625 107.453125 138.148438 107.523438 C 139.160156 107.597656 140.148438 107.402344 141.132812 107.175781 C 141.527344 107.082031 141.898438 106.835938 142.378906 106.941406 C 142.378906 107.105469 142.378906 107.261719 142.375 107.417969 C 142.320312 108.898438 142.847656 109.445312 144.335938 109.152344 C 146.835938 108.660156 149.304688 108.070312 151.582031 106.8125 C 153.675781 105.664062 152.960938 105.5625 155.078125 107.007812 C 156.421875 107.929688 157.714844 108.925781 159.011719 109.914062 C 159.882812 110.574219 160.578125 111.382812 160.960938 112.425781 C 160.570312 112.761719 160.261719 112.578125 159.964844 112.472656 C 158.296875 111.855469 156.574219 111.570312 154.800781 111.523438 C 153.960938 111.503906 153.144531 111.339844 152.316406 111.183594 C 149.71875 110.699219 147.09375 110.398438 144.445312 110.578125 C 143.617188 110.632812 142.738281 110.714844 142.441406 111.75 C 142.351562 112.066406 142.066406 112.019531 141.816406 112.003906 C 140.203125 111.878906 138.785156 112.53125 137.367188 113.144531 C 136.746094 113.414062 136.160156 113.796875 136.324219 114.644531 C 136.402344 115.042969 136.058594 115.125 135.847656 115.296875 C 134.050781 116.808594 132.671875 118.617188 131.957031 120.871094 C 131.753906 121.515625 131.164062 122.3125 131.78125 122.84375 C 132.433594 123.414062 133.203125 122.773438 133.851562 122.445312 C 135.042969 121.839844 136.207031 121.179688 137.441406 120.507812 C 137.710938 120.746094 137.539062 121.257812 137.960938 121.398438 C 138.367188 121.535156 138.703125 121.371094 139.042969 121.222656 C 140.050781 120.785156 140.933594 120.15625 141.726562 119.398438 C 141.75 119.378906 141.769531 119.355469 141.789062 119.332031 C 141.832031 119.335938 141.871094 119.34375 141.910156 119.347656 C 142.226562 119.363281 142.457031 119.253906 142.597656 119.046875 C 143.835938 119.316406 144.894531 118.734375 145.871094 118.140625 C 147.582031 117.09375 149.339844 116.097656 150.875 114.792969 C 152.382812 113.515625 154.152344 112.792969 156.054688 112.503906 C 157.285156 112.316406 158.503906 112.820312 159.785156 113.292969 C 158.445312 115.171875 158.660156 117.085938 159.296875 118.996094 C 160.289062 121.960938 161.785156 124.578125 164.148438 126.757812 C 166.414062 128.84375 168.679688 130.980469 170.300781 133.660156 C 172.164062 136.753906 173.695312 139.976562 174.378906 143.554688 C 174.484375 144.125 174.574219 144.707031 174.839844 145.238281 C 175.023438 145.601562 175.289062 145.839844 175.71875 145.824219 C 176.113281 145.8125 176.296875 145.539062 176.453125 145.226562 Z M 152.015625 112.082031 C 151.96875 112.292969 151.820312 112.273438 151.707031 112.3125 C 148.601562 113.304688 145.429688 114.0625 142.25 114.769531 C 141.804688 114.867188 141.332031 114.902344 140.953125 115.191406 C 140.816406 115.296875 140.71875 115.433594 140.785156 115.617188 C 140.847656 115.789062 140.984375 115.914062 141.15625 115.902344 C 141.402344 115.882812 141.644531 115.804688 141.890625 115.753906 C 144.472656 115.238281 147 114.496094 149.554688 113.851562 C 149.980469 113.742188 150.425781 113.460938 150.855469 113.847656 C 150.804688 113.796875 150.75 113.75 150.699219 113.703125 C 150.75 113.75 150.804688 113.792969 150.855469 113.839844 C 150.839844 113.785156 150.820312 113.734375 150.808594 113.679688 C 150.828125 113.738281 150.84375 113.792969 150.867188 113.847656 C 150.867188 113.847656 150.859375 113.851562 150.859375 113.851562 C 150.859375 113.851562 150.855469 113.851562 150.855469 113.851562 C 150.855469 113.851562 150.859375 113.851562 150.859375 113.851562 C 150.859375 113.851562 150.855469 113.851562 150.855469 113.851562 C 150.710938 113.910156 150.539062 113.945312 150.421875 114.042969 C 148.960938 115.238281 147.292969 116.125 145.746094 117.199219 C 145.195312 117.578125 144.582031 117.855469 143.9375 118.054688 C 143.589844 118.164062 143.25 118.335938 143.070312 117.75 C 142.925781 117.277344 142.558594 117.3125 142.238281 117.59375 C 142.175781 117.570312 142.109375 117.554688 142.027344 117.542969 C 141.578125 117.472656 141.132812 117.933594 141.089844 118.476562 C 141.085938 118.5625 141.097656 118.648438 141.117188 118.730469 C 141.035156 118.8125 140.949219 118.890625 140.863281 118.964844 C 140.222656 119.523438 139.59375 120.113281 138.6875 120.304688 C 138.617188 118.835938 138.4375 118.746094 137.253906 119.503906 C 137.148438 119.570312 137.042969 119.640625 136.9375 119.710938 C 135.601562 120.558594 134.179688 121.246094 132.773438 121.992188 C 132.714844 121.828125 132.660156 121.75 132.667969 121.683594 C 132.691406 121.519531 132.734375 121.359375 132.792969 121.199219 C 133.589844 118.882812 134.933594 116.976562 137.03125 115.648438 C 137.382812 115.425781 137.710938 115.199219 137.464844 114.769531 C 137.128906 114.1875 137.519531 114.035156 137.917969 113.875 C 139.46875 113.257812 140.996094 112.566406 142.757812 113 C 143.4375 113.164062 143.695312 112.933594 143.535156 112.328125 C 143.375 111.71875 143.605469 111.59375 144.097656 111.519531 C 145.390625 111.320312 146.691406 111.40625 147.980469 111.480469 C 149.339844 111.550781 150.726562 111.570312 152.015625 112.082031 Z M 143.347656 101.214844 C 143.355469 101.195312 143.355469 101.175781 143.363281 101.15625 C 143.355469 101.148438 143.351562 101.148438 143.339844 101.140625 C 143.339844 101.140625 143.34375 101.140625 143.34375 101.140625 C 143.34375 101.136719 143.351562 101.132812 143.355469 101.128906 L 143.367188 101.121094 C 143.367188 101.132812 143.363281 101.140625 143.359375 101.152344 C 143.4375 101.203125 143.4375 101.222656 143.347656 101.214844 Z M 144.050781 104.246094 C 143.972656 104.898438 144.628906 104.695312 144.984375 104.742188 C 147.015625 105.011719 149.070312 105.140625 151.082031 105.753906 C 151.066406 106.121094 150.839844 106.183594 150.667969 106.277344 C 148.695312 107.351562 146.5 107.742188 144.355469 108.273438 C 144.195312 108.3125 144.019531 108.292969 143.855469 108.289062 C 143.382812 108.285156 143.152344 108.0625 143.230469 107.582031 C 143.265625 107.375 143.320312 107.175781 143.363281 106.972656 C 143.574219 105.9375 143.296875 105.660156 142.261719 105.894531 C 141.980469 105.960938 141.707031 106.085938 141.425781 106.160156 C 140.421875 106.433594 139.414062 106.695312 138.300781 106.628906 C 138.492188 105.953125 139.082031 105.722656 139.476562 105.324219 C 140.058594 104.738281 140.027344 104.34375 139.257812 104 C 138.617188 103.710938 137.925781 103.511719 137.242188 103.316406 C 134.636719 102.585938 132.167969 101.589844 130.136719 99.746094 C 129.953125 99.578125 129.570312 99.507812 129.742188 99.011719 C 132.722656 99.632812 135.761719 99.992188 138.476562 101.5625 C 139.425781 102.113281 139.703125 101.921875 139.710938 100.828125 C 139.710938 100.757812 139.761719 100.6875 139.808594 100.566406 C 140.320312 100.539062 140.746094 100.828125 141.175781 101.054688 C 142.101562 101.539062 142.972656 102.117188 143.773438 102.800781 C 143.996094 102.988281 144.238281 103.226562 144.546875 103.054688 C 144.929688 102.84375 144.792969 102.480469 144.722656 102.160156 C 144.648438 101.824219 144.40625 101.496094 144.65625 101.085938 C 146.878906 102.089844 149.070312 103.042969 150.835938 104.703125 C 148.902344 104.433594 147.015625 104.042969 145.09375 103.90625 C 144.695312 103.875 144.117188 103.660156 144.050781 104.246094 Z M 159.320312 101.855469 C 159.320312 101.859375 159.320312 101.859375 159.324219 101.863281 C 159.417969 101.855469 159.335938 101.910156 159.324219 101.863281 C 159.320312 101.863281 159.3125 101.863281 159.304688 101.867188 C 159.300781 101.867188 159.300781 101.867188 159.296875 101.867188 C 159.234375 101.894531 159.210938 101.894531 159.238281 101.875 C 159.238281 101.875 159.269531 101.851562 159.335938 101.804688 C 158.855469 102.070312 158.65625 101.640625 158.40625 101.410156 C 155.019531 98.292969 151.300781 95.621094 147.347656 93.265625 C 147.09375 93.117188 146.847656 92.960938 146.601562 92.804688 C 146.363281 92.660156 146.128906 92.609375 145.957031 92.886719 C 145.796875 93.148438 145.917969 93.382812 146.136719 93.535156 C 146.507812 93.800781 146.898438 94.042969 147.289062 94.28125 C 150.75 96.394531 154.078125 98.679688 157.058594 101.4375 C 157.351562 101.710938 157.683594 101.9375 158.003906 102.183594 C 158.003906 102.179688 158.011719 102.179688 158.015625 102.175781 C 158.015625 102.175781 158.035156 102.203125 158.035156 102.207031 C 158.035156 102.207031 158.039062 102.207031 158.039062 102.210938 C 158.027344 102.214844 158.019531 102.222656 158.007812 102.226562 C 158.007812 102.238281 158.011719 102.238281 158.015625 102.246094 C 158.097656 102.21875 158.035156 102.28125 158.015625 102.246094 C 158.003906 102.25 158.003906 102.25 157.992188 102.25 C 157.980469 102.257812 157.96875 102.253906 157.964844 102.25 C 157.917969 102.277344 157.902344 102.28125 157.921875 102.257812 C 157.945312 102.226562 157.957031 102.210938 157.960938 102.207031 C 157.957031 102.214844 157.941406 102.238281 158 102.1875 C 158 102.1875 157.996094 102.1875 157.996094 102.183594 C 157.566406 102.421875 157.203125 102.179688 156.824219 102.027344 C 154.378906 101.042969 151.886719 100.203125 149.363281 99.433594 C 148.449219 99.15625 147.558594 98.769531 146.6875 98.378906 C 146.257812 98.191406 145.949219 97.894531 146.09375 97.296875 C 146.347656 96.269531 146.308594 96.265625 145.363281 95.828125 C 144.378906 95.371094 143.371094 94.949219 142.414062 94.445312 C 141.808594 94.125 141.1875 93.75 140.964844 93.019531 C 141.285156 92.757812 141.828125 92.804688 141.839844 92.328125 C 141.851562 91.835938 141.390625 91.648438 141.027344 91.472656 C 138.441406 90.25 136.445312 88.28125 134.421875 86.347656 C 134.183594 86.121094 133.871094 85.902344 133.867188 85.40625 C 136.695312 86.257812 139.324219 87.3125 141.839844 88.648438 C 142.0625 88.765625 142.273438 88.894531 142.496094 89.011719 C 142.753906 89.144531 143.019531 89.3125 143.3125 89.09375 C 143.613281 88.871094 143.515625 88.597656 143.449219 88.304688 C 143.390625 88.058594 143.101562 87.816406 143.363281 87.535156 C 143.46875 87.566406 143.558594 87.570312 143.625 87.613281 C 145.484375 88.804688 147.523438 89.757812 148.78125 91.703125 C 148.945312 91.953125 149.183594 92.144531 149.523438 91.976562 C 149.796875 91.839844 149.800781 91.585938 149.78125 91.328125 C 149.75 90.9375 149.617188 90.535156 149.875 89.996094 C 151.332031 91.695312 152.625 93.367188 153.722656 95.183594 C 153.894531 95.46875 154.035156 95.777344 154.242188 96.039062 C 154.566406 96.453125 154.921875 96.496094 155.238281 96.011719 C 155.328125 95.878906 155.363281 95.695312 155.652344 95.695312 C 156.953125 97.667969 158.425781 99.585938 159.347656 101.839844 C 159.339844 101.847656 159.332031 101.847656 159.320312 101.855469 Z M 175.671875 144.460938 C 175.457031 144.320312 175.394531 144.113281 175.367188 143.914062 C 174.972656 141.421875 174.050781 139.117188 173.019531 136.824219 C 171.664062 133.808594 169.886719 131.140625 167.507812 128.851562 C 166.976562 128.339844 166.378906 127.867188 166.058594 127.15625 C 166.492188 126.886719 166.972656 126.808594 167.292969 126.457031 C 167.414062 126.324219 167.480469 126.144531 167.414062 126 C 167.308594 125.785156 167.09375 125.753906 166.878906 125.84375 C 166.761719 125.894531 166.65625 125.960938 166.550781 126.027344 C 165.703125 126.515625 165.035156 126.296875 164.304688 125.660156 C 162.640625 124.214844 161.695312 122.324219 160.765625 120.40625 C 160.632812 120.128906 160.398438 119.839844 160.566406 119.480469 C 161.03125 119.226562 161.570312 119.382812 162.03125 119.179688 C 162.28125 119.066406 162.4375 118.863281 162.328125 118.578125 C 162.238281 118.339844 162.03125 118.359375 161.808594 118.398438 C 161.441406 118.460938 161.066406 118.484375 160.695312 118.539062 C 160.289062 118.597656 160.089844 118.394531 159.949219 118.039062 C 159.152344 115.96875 159.878906 114.164062 161.84375 113.175781 C 162.722656 112.730469 163.515625 112.789062 164.328125 113.265625 C 164.957031 113.632812 165.46875 114.117188 165.84375 114.734375 C 166.269531 115.453125 166.679688 116.179688 167.085938 116.910156 C 167.695312 118.023438 167.636719 118.21875 166.558594 118.851562 C 166.414062 118.9375 166.25 118.984375 166.105469 119.066406 C 165.921875 119.175781 165.75 119.324219 165.832031 119.566406 C 165.945312 119.882812 166.203125 119.835938 166.457031 119.769531 C 167.035156 119.625 167.460938 119.199219 167.960938 118.914062 C 168.378906 119.332031 168.472656 119.667969 167.9375 120.042969 C 167.558594 120.3125 167.15625 120.511719 166.738281 120.710938 C 166.542969 120.804688 166.378906 120.953125 166.480469 121.199219 C 166.578125 121.417969 166.773438 121.46875 167.003906 121.425781 C 167.660156 121.296875 168.171875 120.867188 168.683594 120.503906 C 168.8125 120.640625 168.894531 120.691406 168.921875 120.757812 C 170.941406 125.238281 173.109375 129.664062 174.628906 134.351562 C 175.492188 137.015625 176.007812 139.761719 176.066406 142.574219 C 176.078125 143.222656 176.167969 143.910156 175.671875 144.460938 Z M 174.433594 106.085938 C 174.449219 106.089844 174.460938 106.097656 174.472656 106.101562 C 174.460938 106.125 174.453125 106.140625 174.449219 106.152344 C 174.4375 106.128906 174.433594 106.105469 174.433594 106.085938 Z M 224.960938 161.632812 C 225.289062 163.902344 226.101562 165.976562 227.460938 167.839844 C 227.832031 168.347656 228.246094 168.820312 228.746094 169.199219 C 229.519531 169.789062 230.492188 169.941406 231.082031 169.519531 C 231.820312 168.996094 231.960938 168.210938 231.816406 167.394531 C 231.464844 165.40625 230.484375 163.722656 229.1875 162.207031 C 228.945312 161.925781 228.679688 161.667969 228.425781 161.394531 C 230.652344 161.5625 232.769531 162.007812 234.730469 163 C 235.363281 163.320312 235.964844 163.707031 236.605469 164.015625 C 238.238281 164.800781 239.414062 165.964844 240.195312 167.648438 C 241.023438 169.425781 242.214844 171.007812 243.578125 172.441406 C 244.160156 173.054688 244.792969 173.597656 245.574219 173.941406 C 247.246094 174.679688 248.757812 173.6875 248.761719 171.855469 C 248.761719 171.570312 248.734375 171.269531 248.660156 170.992188 C 247.679688 167.460938 244.328125 164.554688 240.460938 165.011719 C 240.074219 165.058594 239.734375 165.046875 239.390625 164.816406 C 238.445312 164.195312 237.484375 163.605469 236.523438 163.011719 C 235.566406 162.421875 234.539062 161.964844 233.417969 161.46875 C 233.957031 161.09375 234.46875 161.160156 234.953125 161.136719 C 235.667969 161.09375 236.375 161.011719 237.03125 160.714844 C 238.082031 160.234375 238.332031 159.277344 237.644531 158.347656 C 237.101562 157.609375 236.316406 157.207031 235.457031 156.960938 C 233.507812 156.394531 231.5625 156.59375 229.621094 157.046875 C 228.082031 157.414062 226.71875 158.140625 225.558594 159.191406 C 225.066406 159.636719 224.589844 159.710938 223.972656 159.671875 C 220.839844 159.480469 217.71875 159.082031 214.570312 159.175781 C 214.277344 159.183594 213.980469 159.171875 213.695312 159.21875 C 213.429688 159.261719 213.230469 159.445312 213.253906 159.734375 C 213.277344 160.039062 213.503906 160.132812 213.785156 160.128906 C 214.621094 160.105469 215.460938 160.035156 216.296875 160.074219 C 218.847656 160.199219 221.394531 160.398438 223.945312 160.503906 C 224.777344 160.535156 224.871094 161.027344 224.960938 161.632812 Z M 240.277344 165.964844 C 240.671875 165.734375 240.96875 165.746094 241.261719 165.746094 C 244.269531 165.789062 247.324219 168.398438 247.828125 171.359375 C 247.863281 171.5625 247.890625 171.773438 247.878906 171.976562 C 247.796875 173.03125 247.023438 173.53125 246.03125 173.152344 C 245.480469 172.941406 245.007812 172.582031 244.585938 172.167969 C 242.777344 170.394531 241.472656 168.273438 240.277344 165.964844 Z M 228.039062 160.039062 C 227.53125 159.953125 226.964844 159.988281 226.539062 159.621094 C 226.605469 159.289062 226.871094 159.203125 227.070312 159.070312 C 229.078125 157.746094 231.320312 157.394531 233.667969 157.519531 C 234.46875 157.5625 235.25 157.714844 235.957031 158.109375 C 236.46875 158.390625 237.113281 158.675781 237.042969 159.347656 C 236.964844 160.09375 236.222656 160.0625 235.664062 160.144531 C 233.117188 160.53125 230.574219 160.476562 228.039062 160.039062 Z M 225.757812 160.792969 C 226.804688 161.132812 226.964844 161.234375 228.082031 162.351562 C 229.40625 163.675781 230.367188 165.226562 230.820312 167.046875 C 230.964844 167.628906 231.191406 168.375 230.515625 168.757812 C 229.839844 169.140625 229.351562 168.554688 228.902344 168.136719 C 228.1875 167.476562 227.6875 166.644531 227.246094 165.796875 C 226.421875 164.246094 225.898438 162.605469 225.757812 160.792969 Z M 232.90625 147.175781 C 231.808594 147.691406 230.6875 148.160156 229.480469 148.390625 C 229.160156 148.449219 228.746094 148.402344 228.671875 148.828125 C 228.601562 149.21875 228.964844 149.390625 229.222656 149.59375 C 229.285156 149.644531 229.363281 149.679688 229.4375 149.722656 C 230.179688 150.132812 230.992188 150.332031 231.832031 150.421875 C 233.886719 150.636719 235.933594 150.535156 237.960938 150.15625 C 238.992188 149.964844 239.988281 149.601562 240.824219 148.9375 C 241.964844 148.03125 241.78125 146.746094 240.4375 146.207031 C 239.320312 145.761719 238.164062 145.660156 236.980469 145.902344 C 235.582031 146.195312 234.207031 146.566406 232.90625 147.175781 Z M 230.394531 149.089844 C 232.042969 148.667969 233.402344 147.816406 234.917969 147.355469 C 235.675781 147.125 236.449219 146.945312 237.222656 146.777344 C 238.097656 146.585938 238.96875 146.660156 239.816406 146.925781 C 240.160156 147.039062 240.601562 147.136719 240.621094 147.59375 C 240.636719 148 240.320312 148.261719 239.992188 148.460938 C 239.269531 148.894531 238.492188 149.207031 237.667969 149.347656 C 235.808594 149.664062 233.941406 149.789062 232.058594 149.613281 C 231.53125 149.5625 230.972656 149.578125 230.394531 149.089844 Z M 192.433594 142.46875 C 192.847656 141.570312 193.101562 140.609375 193.042969 139.601562 C 192.957031 138.230469 191.863281 137.675781 190.714844 138.417969 C 189.761719 139.035156 189.054688 139.871094 188.605469 140.914062 C 188.070312 142.144531 187.613281 143.402344 187.378906 144.734375 C 187.183594 145.859375 186.9375 146.976562 186.464844 148.027344 C 186.335938 148.308594 186.078125 148.601562 186.363281 148.890625 C 186.628906 149.160156 186.957031 148.96875 187.253906 148.882812 C 187.328125 148.859375 187.394531 148.816406 187.46875 148.785156 C 188.191406 148.4375 188.789062 147.921875 189.308594 147.324219 C 190.589844 145.863281 191.625 144.230469 192.433594 142.46875 Z M 192.21875 139.984375 C 192.164062 140.773438 191.984375 141.542969 191.648438 142.257812 C 190.886719 143.855469 189.964844 145.363281 188.804688 146.714844 C 188.484375 147.089844 188.1875 147.53125 187.496094 147.707031 C 188.0625 146.210938 188.140625 144.707031 188.605469 143.289062 C 188.839844 142.578125 189.125 141.890625 189.410156 141.203125 C 189.738281 140.425781 190.265625 139.792969 190.9375 139.289062 C 191.207031 139.082031 191.527344 138.796875 191.890625 139.03125 C 192.214844 139.238281 192.242188 139.621094 192.21875 139.984375 Z M 156.453125 132.445312 C 156.804688 133.496094 157.421875 134.363281 158.300781 135.046875 C 159.339844 135.851562 160.417969 136.589844 161.625 137.136719 C 162.644531 137.601562 163.644531 138.105469 164.527344 138.808594 C 164.757812 138.996094 164.972656 139.3125 165.316406 139.117188 C 165.636719 138.933594 165.539062 138.578125 165.527344 138.277344 C 165.527344 138.199219 165.503906 138.125 165.492188 138.050781 C 165.339844 137.285156 164.992188 136.59375 164.558594 135.957031 C 163.484375 134.390625 162.191406 133.019531 160.71875 131.824219 C 159.964844 131.214844 159.117188 130.738281 158.144531 130.546875 C 156.824219 130.289062 156.027344 131.183594 156.453125 132.445312 Z M 157.316406 131.488281 C 157.597656 131.230469 157.96875 131.300781 158.304688 131.414062 C 159.042969 131.660156 159.726562 132.015625 160.320312 132.511719 C 161.648438 133.621094 162.855469 134.855469 163.851562 136.277344 C 164.128906 136.675781 164.476562 137.058594 164.472656 137.753906 C 163.191406 136.855469 161.78125 136.410156 160.554688 135.621094 C 159.9375 135.230469 159.355469 134.792969 158.773438 134.351562 C 158.113281 133.855469 157.644531 133.203125 157.328125 132.445312 C 157.199219 132.144531 157.003906 131.773438 157.316406 131.488281 Z M 206.785156 125.050781 C 206.230469 125.039062 205.785156 124.582031 205.804688 124.035156 C 205.816406 123.597656 206.226562 123.214844 206.652344 123.242188 C 207.105469 123.273438 207.675781 123.863281 207.65625 124.28125 C 207.628906 124.722656 207.253906 125.054688 206.785156 125.050781 Z M 182.074219 138.140625 C 182.660156 138.148438 183.117188 138.59375 183.125 139.164062 C 183.132812 139.757812 182.652344 140.25 182.035156 140.28125 C 181.449219 140.3125 180.867188 139.804688 180.859375 139.253906 C 180.851562 138.703125 181.46875 138.132812 182.074219 138.140625 Z M 230.648438 142.457031 C 231.328125 142.40625 231.800781 141.816406 231.765625 141.074219 C 231.726562 140.273438 231.101562 139.671875 230.332031 139.6875 C 229.640625 139.699219 229.015625 140.28125 229.015625 140.914062 C 229.007812 141.671875 229.898438 142.515625 230.648438 142.457031 Z M 230.488281 141.613281 C 230.175781 141.5 229.917969 141.300781 229.929688 140.914062 C 229.9375 140.652344 230.160156 140.585938 230.375 140.585938 C 230.785156 140.597656 230.980469 140.828125 230.921875 141.234375 C 230.890625 141.457031 230.765625 141.613281 230.488281 141.613281 Z M 196.886719 143.316406 C 196.289062 143.359375 195.886719 143.792969 195.898438 144.382812 C 195.917969 145.195312 196.410156 145.632812 197.28125 145.613281 C 197.980469 145.59375 198.25 145.363281 198.257812 144.773438 C 198.273438 143.925781 197.648438 143.265625 196.886719 143.316406 Z M 197.050781 144.175781 C 197.21875 144.210938 197.332031 144.355469 197.328125 144.542969 C 197.320312 144.683594 197.238281 144.769531 197.144531 144.777344 C 196.886719 144.78125 196.78125 144.632812 196.765625 144.472656 C 196.738281 144.300781 196.851562 144.136719 197.050781 144.175781 Z M 193.324219 148.667969 C 193.800781 148.621094 194.101562 149.039062 194.105469 149.726562 C 194.183594 150.253906 193.871094 150.480469 193.398438 150.527344 C 192.890625 150.578125 192.402344 150.089844 192.46875 149.589844 C 192.535156 149.113281 192.773438 148.71875 193.324219 148.667969 Z M 155.542969 122.855469 C 156.019531 122.808594 156.320312 123.230469 156.324219 123.917969 C 156.402344 124.445312 156.089844 124.671875 155.617188 124.71875 C 155.109375 124.765625 154.621094 124.28125 154.6875 123.777344 C 154.757812 123.300781 154.996094 122.90625 155.542969 122.855469 Z M 172.8125 117.757812 C 172.25 117.75 171.792969 117.359375 171.792969 116.902344 C 171.800781 116.492188 172.234375 116.152344 172.757812 116.148438 C 173.292969 116.144531 173.773438 116.5625 173.765625 117.019531 C 173.761719 117.464844 173.371094 117.765625 172.8125 117.757812 Z M 242.699219 127.367188 C 242.5 125.511719 241.21875 123.957031 239.410156 123.511719 C 235.675781 122.589844 232.019531 122.609375 228.605469 124.707031 C 227.644531 125.300781 226.65625 125.847656 225.683594 126.429688 C 224.230469 127.300781 223.019531 128.445312 221.96875 129.761719 C 221.085938 130.875 220.207031 131.992188 219.3125 133.097656 C 219.179688 133.261719 219.121094 133.558594 218.8125 133.511719 C 219.296875 131.621094 219.816406 129.730469 219.863281 127.757812 C 219.878906 127.160156 220.179688 126.726562 220.578125 126.351562 C 222.5 124.535156 224.042969 122.390625 225.8125 120.445312 C 227.527344 118.550781 229.039062 116.5 230.421875 114.355469 C 231.636719 112.464844 232.367188 110.410156 232.539062 108.144531 C 232.675781 106.339844 232.097656 104.890625 230.761719 103.675781 C 229.898438 102.894531 228.96875 102.640625 227.875 103.039062 C 225.386719 103.945312 223.597656 105.632812 222.511719 108.015625 C 221.394531 110.464844 220.984375 113.117188 220.433594 115.730469 C 219.5 120.160156 219.390625 124.675781 218.898438 129.152344 C 218.777344 130.28125 218.546875 131.375 218.21875 132.457031 C 217.929688 133.410156 217.613281 134.359375 217.308594 135.316406 C 216.9375 135.25 216.867188 135.011719 216.953125 134.6875 C 217.09375 134.164062 217.222656 133.636719 217.382812 133.117188 C 217.929688 131.371094 217.609375 129.71875 216.765625 128.164062 C 216.433594 127.558594 216.417969 127.035156 216.554688 126.394531 C 217.386719 122.503906 217.96875 118.597656 217.394531 114.597656 C 217.171875 113.058594 216.769531 111.574219 216.164062 110.148438 C 215.632812 108.902344 214.878906 107.800781 213.75 107.007812 C 211.898438 105.699219 209.847656 106.390625 209.171875 108.546875 C 208.808594 109.71875 208.757812 110.929688 208.832031 112.144531 C 208.992188 114.882812 209.613281 117.511719 210.957031 119.925781 C 212.363281 122.441406 213.59375 125.054688 215.3125 127.390625 C 216.039062 128.371094 216.550781 129.457031 216.746094 130.691406 C 216.929688 131.839844 216.683594 132.898438 216.277344 134.015625 C 215.738281 133.886719 215.53125 133.488281 215.261719 133.210938 C 213.398438 131.328125 211.207031 130.324219 208.507812 130.492188 C 205.488281 130.679688 202.105469 133.351562 201.242188 136.230469 C 200.660156 138.160156 200.59375 140.070312 201.109375 142.027344 C 201.554688 143.71875 202.09375 145.386719 202.382812 147.125 C 202.730469 149.226562 202.359375 151.1875 201.382812 153.058594 C 201.347656 153.128906 201.296875 153.203125 201.273438 153.28125 C 201.179688 153.609375 200.683594 153.90625 201.089844 154.273438 C 201.476562 154.628906 201.773438 154.203125 202.074219 154.027344 C 202.902344 153.550781 203.769531 153.375 204.726562 153.488281 C 205.851562 153.621094 206.972656 153.785156 208.070312 154.050781 C 210.003906 154.515625 211.945312 154.699219 213.921875 154.339844 C 214.949219 154.148438 215.980469 153.949219 217.019531 153.859375 C 220.375 153.578125 224.246094 149.789062 224.296875 145.59375 C 224.332031 143.039062 223.554688 140.746094 222.15625 138.648438 C 221.492188 137.65625 220.515625 136.996094 219.445312 136.476562 C 219.1875 136.351562 218.929688 136.214844 218.703125 136.097656 C 218.699219 135.957031 218.671875 135.863281 218.703125 135.804688 C 219.074219 135.117188 219.253906 134.222656 219.960938 133.832031 C 221.324219 133.085938 222.792969 132.589844 224.398438 132.757812 C 225.480469 132.871094 226.566406 132.96875 227.632812 133.207031 C 229.558594 133.636719 231.496094 134.003906 233.472656 133.992188 C 236.265625 133.976562 238.871094 133.339844 241.058594 131.488281 C 242.339844 130.40625 242.878906 129.019531 242.699219 127.367188 Z M 216.339844 122.40625 C 216.230469 122.3125 216.179688 122.289062 216.171875 122.257812 C 216.070312 121.898438 215.972656 121.539062 215.886719 121.175781 C 215.339844 118.859375 214.695312 116.570312 213.371094 114.542969 C 213.210938 114.300781 213.0625 114.046875 212.875 113.824219 C 212.734375 113.65625 212.527344 113.589844 212.316406 113.730469 C 212.109375 113.871094 212.113281 114.09375 212.199219 114.289062 C 212.316406 114.550781 212.476562 114.800781 212.628906 115.050781 C 214.589844 118.320312 215.308594 121.933594 215.609375 125.664062 C 215.613281 125.730469 215.542969 125.804688 215.496094 125.886719 C 215.039062 125.683594 214.867188 125.226562 214.65625 124.84375 C 213.488281 122.726562 212.277344 120.625 211.230469 118.445312 C 210.191406 116.28125 209.742188 113.9375 209.707031 111.535156 C 209.695312 110.703125 209.710938 109.863281 209.929688 109.046875 C 210.429688 107.191406 211.972656 106.695312 213.464844 107.925781 C 214.421875 108.714844 215.039062 109.746094 215.496094 110.890625 C 216.519531 113.457031 216.773438 116.140625 216.710938 118.863281 C 216.6875 120.035156 216.625 121.210938 216.339844 122.40625 Z M 218.59375 137.101562 C 219.792969 137.417969 220.722656 138.105469 221.410156 139.070312 C 222.667969 140.84375 223.375 142.847656 223.414062 145.03125 C 223.425781 145.671875 223.648438 146.589844 223.078125 146.902344 C 222.390625 147.28125 221.539062 146.855469 220.820312 146.5 C 220.488281 146.332031 220.191406 146.085938 219.878906 145.878906 C 219.707031 145.761719 219.546875 145.617188 219.359375 145.53125 C 219.128906 145.421875 218.863281 145.355469 218.707031 145.648438 C 218.59375 145.863281 218.703125 146.035156 218.882812 146.179688 C 219.851562 146.933594 220.851562 147.601562 222.105469 147.777344 C 222.378906 147.816406 222.707031 147.710938 222.949219 148.167969 C 221.566406 150.453125 219.976562 152.53125 216.996094 152.953125 C 215.792969 153.125 214.597656 153.316406 213.398438 153.511719 C 212.269531 153.695312 211.160156 153.628906 210.023438 153.527344 C 207.589844 153.300781 205.269531 152.226562 202.695312 152.679688 C 202.785156 152.277344 202.816406 152.03125 202.894531 151.796875 C 203.554688 149.796875 203.554688 147.78125 203.019531 145.753906 C 202.816406 144.988281 202.632812 144.21875 202.417969 143.453125 C 202.085938 142.246094 201.71875 141.042969 201.648438 139.785156 C 201.542969 137.765625 201.996094 135.851562 203.269531 134.269531 C 204.339844 132.941406 205.851562 132.171875 207.445312 131.574219 C 207.972656 131.378906 208.195312 131.589844 208.367188 132.058594 C 208.644531 132.804688 209.007812 133.519531 209.539062 134.121094 C 209.765625 134.375 209.972656 134.898438 210.402344 134.601562 C 210.867188 134.28125 210.40625 133.949219 210.203125 133.683594 C 209.726562 133.042969 209.320312 132.371094 209.066406 131.417969 C 210.675781 131.269531 211.976562 131.742188 213.175781 132.582031 C 214.242188 133.332031 215.148438 134.253906 215.964844 135.269531 C 216.660156 136.132812 217.507812 136.816406 218.59375 137.101562 Z M 220.65625 119.800781 C 221.042969 117.160156 221.492188 114.527344 222.132812 111.933594 C 222.46875 110.550781 222.871094 109.183594 223.554688 107.933594 C 224.5625 106.078125 226.03125 104.691406 228.035156 103.9375 C 228.597656 103.722656 229.191406 103.59375 229.714844 104.003906 C 230.84375 104.878906 231.667969 105.914062 231.65625 107.460938 C 231.640625 109.925781 230.820312 112.109375 229.503906 114.152344 C 227.121094 117.855469 224.054688 121.015625 221.257812 124.386719 C 221.121094 124.550781 220.984375 124.84375 220.652344 124.636719 C 220.703125 124.007812 220.90625 123.417969 221.101562 122.824219 C 222.3125 119.148438 224.515625 116.070312 226.953125 113.132812 C 227.167969 112.878906 227.40625 112.640625 227.601562 112.371094 C 227.738281 112.179688 227.660156 111.972656 227.488281 111.820312 C 227.292969 111.644531 227.082031 111.695312 226.917969 111.832031 C 226.730469 111.988281 226.582031 112.199219 226.417969 112.386719 C 224.140625 115.0625 222.128906 117.910156 220.71875 121.195312 C 220.421875 120.695312 220.59375 120.238281 220.65625 119.800781 Z M 218.828125 133.558594 C 218.828125 133.558594 218.796875 133.527344 218.785156 133.515625 C 218.78125 133.511719 218.777344 133.511719 218.777344 133.511719 C 218.777344 133.511719 218.808594 133.53125 218.808594 133.53125 Z M 240.4375 130.84375 C 239.828125 131.359375 239.164062 131.796875 238.425781 132.109375 C 236.625 132.867188 234.753906 133.1875 232.796875 133.097656 C 230.441406 132.988281 228.1875 132.273438 225.855469 132.027344 C 225.148438 131.953125 224.441406 131.859375 223.738281 131.78125 C 226.035156 130.632812 228.324219 129.636719 230.890625 129.601562 C 231.6875 129.589844 232.480469 129.585938 233.277344 129.570312 C 233.597656 129.566406 233.878906 129.445312 233.859375 129.074219 C 233.839844 128.734375 233.582031 128.554688 233.253906 128.566406 C 232.800781 128.582031 232.34375 128.675781 231.890625 128.683594 C 230.121094 128.695312 228.386719 128.867188 226.707031 129.46875 C 225.132812 130.035156 223.566406 130.601562 222.027344 131.285156 C 222.621094 130.210938 223.371094 129.316406 224.273438 128.574219 C 226.417969 126.808594 228.804688 125.417969 231.386719 124.410156 C 233.902344 123.433594 236.503906 123.746094 239.050781 124.332031 C 240.503906 124.667969 241.453125 125.671875 241.765625 127.160156 C 242.070312 128.640625 241.589844 129.871094 240.4375 130.84375 Z M 208.164062 138.585938 C 208.019531 138.515625 207.878906 138.421875 207.75 138.324219 C 207.011719 137.765625 206.519531 136.988281 205.953125 136.285156 C 205.839844 136.148438 205.828125 135.984375 205.890625 135.820312 C 206.003906 135.511719 206.433594 135.484375 206.6875 135.851562 C 207.234375 136.632812 207.820312 137.371094 208.574219 137.972656 C 208.757812 138.121094 208.796875 138.324219 208.625 138.503906 C 208.503906 138.628906 208.328125 138.664062 208.164062 138.585938 Z M 206.78125 139.082031 C 206.933594 139.179688 206.964844 139.347656 206.859375 139.511719 C 206.757812 139.667969 206.589844 139.707031 206.425781 139.679688 C 205.828125 139.570312 204.5 137.929688 204.542969 137.3125 C 204.59375 137.253906 204.652344 137.132812 204.75 137.089844 C 204.972656 136.988281 205.167969 137.117188 205.285156 137.285156 C 205.742188 137.917969 206.09375 138.636719 206.78125 139.082031 Z M 220.710938 149.960938 C 220.660156 150.054688 220.527344 150.140625 220.421875 150.167969 C 220.265625 150.203125 220.09375 150.183594 219.980469 150.1875 C 219.328125 149.894531 218.671875 149.710938 218.246094 149.160156 C 218.125 149 218.042969 148.792969 218.199219 148.589844 C 218.3125 148.449219 218.5 148.347656 218.628906 148.476562 C 219.167969 149.035156 219.90625 149.207031 220.5625 149.539062 C 220.707031 149.613281 220.796875 149.792969 220.710938 149.960938 Z M 205.820312 146.589844 C 205.980469 146.523438 206.164062 146.570312 206.257812 146.722656 C 206.648438 147.347656 207.003906 147.996094 207.496094 148.550781 C 207.550781 148.617188 207.53125 148.796875 207.480469 148.886719 C 207.394531 149.042969 207.230469 149.085938 207.050781 149.035156 C 206.542969 148.875 205.523438 147.359375 205.601562 146.851562 C 205.621094 146.753906 205.726562 146.632812 205.820312 146.589844 Z M 208.621094 147.9375 C 208.019531 147.714844 207.613281 147.265625 207.25 146.765625 C 207.207031 146.710938 207.226562 146.613281 207.214844 146.542969 C 207.308594 146.316406 207.511719 146.148438 207.6875 146.28125 C 208.175781 146.636719 208.621094 147.054688 209.066406 147.460938 C 209.148438 147.535156 209.160156 147.679688 209.054688 147.792969 C 208.933594 147.921875 208.785156 148 208.621094 147.9375 Z M 197.003906 117.957031 C 197.691406 117.265625 198.324219 116.621094 198.972656 115.988281 C 199.15625 115.808594 199.464844 115.695312 199.363281 115.367188 C 199.253906 115.019531 198.945312 115.125 198.6875 115.148438 C 196.878906 115.289062 195.125 114.914062 193.367188 114.597656 C 192.472656 114.4375 191.964844 113.992188 191.683594 113.03125 C 191.003906 110.6875 189.796875 108.640625 187.625 107.316406 C 187.367188 107.160156 187.09375 107.007812 186.8125 106.917969 C 186.441406 106.800781 186.15625 107.113281 186.371094 107.417969 C 186.675781 107.84375 186.800781 108.339844 187.152344 108.765625 C 188.234375 110.078125 189.273438 111.449219 189.375 113.335938 C 188.96875 113.316406 188.621094 113.207031 188.257812 113.367188 C 186.105469 114.324219 183.75 114.40625 181.476562 114.828125 C 181.402344 114.84375 181.324219 114.839844 181.246094 114.847656 C 180.945312 114.871094 180.589844 114.859375 180.449219 115.175781 C 180.277344 115.566406 180.589844 115.796875 180.84375 116.03125 C 180.921875 116.105469 180.96875 116.214844 181.027344 116.304688 C 180.769531 116.707031 180.398438 116.980469 180.042969 117.261719 C 178.394531 118.585938 177.707031 120.34375 177.503906 122.402344 C 177.03125 127.183594 180.875 131.828125 184.21875 133.128906 C 184.890625 133.390625 185.566406 133.65625 186.210938 133.976562 C 188.0625 134.898438 189.984375 135.011719 191.996094 134.636719 C 194.039062 134.253906 195.996094 133.742188 197.621094 132.332031 C 199.53125 130.679688 200.59375 128.582031 200.75 126.105469 C 200.875 124.109375 200.398438 122.191406 199.355469 120.441406 C 198.757812 119.457031 198.085938 118.558594 197.003906 117.957031 Z M 193.800781 116.90625 C 193.5625 116.691406 193.285156 116.488281 193.019531 116.796875 C 192.820312 117.039062 192.976562 117.300781 193.1875 117.496094 C 193.796875 118.054688 194.082031 118.792969 194.367188 119.539062 C 194.691406 120.390625 195.046875 121.222656 195.652344 121.925781 C 195.792969 122.085938 195.890625 122.253906 195.785156 122.449219 C 195.789062 122.460938 195.78125 122.492188 195.769531 122.542969 C 195.769531 122.542969 195.734375 122.53125 195.734375 122.53125 C 195.734375 122.53125 195.734375 122.53125 195.734375 122.527344 C 195.734375 122.527344 195.734375 122.527344 195.730469 122.527344 C 195.730469 122.527344 195.730469 122.523438 195.734375 122.519531 C 193.488281 121.40625 192.195312 119.542969 191.523438 117.1875 C 191.503906 117.117188 191.472656 117.046875 191.449219 116.972656 C 191.355469 116.722656 191.292969 116.433594 190.949219 116.449219 C 190.683594 116.457031 190.570312 116.671875 190.484375 116.890625 C 190.429688 117.027344 190.390625 117.175781 190.324219 117.3125 C 189.773438 118.449219 189.109375 119.503906 188.203125 120.398438 C 187.710938 120.882812 187.152344 121.199219 186.335938 121.304688 C 186.808594 120.378906 187.222656 119.578125 187.625 118.769531 C 187.945312 118.125 188.246094 117.46875 188.421875 116.765625 C 188.492188 116.46875 188.550781 116.144531 188.226562 115.953125 C 187.957031 115.789062 187.707031 115.941406 187.492188 116.101562 C 186.875 116.5625 186.21875 116.929688 185.464844 117.109375 C 184.273438 117.390625 182.613281 116.675781 181.992188 115.601562 C 184.035156 115.148438 186.148438 115.085938 188.128906 114.324219 C 188.578125 114.152344 189.085938 114.203125 189.574219 114.402344 C 190.121094 114.628906 190.296875 114.527344 190.265625 113.964844 C 190.183594 112.480469 189.964844 111.023438 188.855469 109.878906 C 188.851562 109.882812 188.84375 109.886719 188.839844 109.886719 C 188.847656 109.878906 188.851562 109.871094 188.863281 109.863281 C 188.863281 109.671875 188.855469 109.484375 188.851562 109.300781 C 188.839844 109.269531 188.832031 109.238281 188.824219 109.210938 C 188.792969 109.253906 188.789062 109.238281 188.8125 109.148438 C 188.8125 109.148438 188.84375 109.160156 188.851562 109.164062 C 188.851562 109.207031 188.851562 109.253906 188.851562 109.300781 C 188.921875 109.484375 189.042969 109.667969 188.863281 109.863281 C 188.863281 109.863281 188.863281 109.867188 188.863281 109.871094 C 188.855469 109.875 188.839844 109.886719 188.839844 109.886719 L 188.855469 109.875 C 189.246094 109.652344 189.375 109.992188 189.535156 110.222656 C 190.308594 111.355469 190.910156 112.578125 191.203125 113.921875 C 191.332031 114.511719 191.648438 114.800781 192.195312 115 C 193.566406 115.503906 195 115.628906 196.425781 115.824219 C 196.8125 115.882812 197.25 115.773438 197.566406 116.117188 C 196.640625 117.625 195.023438 118 193.800781 116.90625 Z M 198.273438 120.15625 C 199.109375 121.414062 199.664062 122.773438 199.859375 124.257812 C 200.261719 127.304688 199.394531 129.992188 196.882812 131.796875 C 193.808594 134.003906 190.378906 134.828125 186.679688 133.269531 C 186.152344 133.050781 185.625 132.835938 185.09375 132.632812 C 182.789062 131.769531 181.097656 130.183594 179.796875 128.148438 C 178.257812 125.738281 177.855469 123.167969 178.742188 120.429688 C 179.15625 119.148438 180.050781 118.242188 181.09375 117.429688 C 181.828125 116.859375 181.835938 116.777344 182.628906 117.300781 C 183.929688 118.164062 185.253906 118.191406 186.636719 117.574219 C 186.804688 117.496094 186.976562 117.433594 187.34375 117.285156 C 187.222656 117.636719 187.195312 117.785156 187.125 117.914062 C 186.464844 119.144531 186.042969 120.511719 184.964844 121.496094 C 184.796875 121.65625 184.691406 121.867188 184.839844 122.109375 C 184.976562 122.332031 185.195312 122.378906 185.433594 122.359375 C 185.546875 122.351562 185.660156 122.320312 185.773438 122.3125 C 187.789062 122.140625 189.078125 120.925781 190.125 119.34375 C 190.363281 118.988281 190.511719 118.554688 190.886719 118.25 C 191.367188 119.078125 191.773438 119.847656 192.238281 120.574219 C 193.175781 122.050781 194.539062 122.964844 196.210938 123.445312 C 196.425781 123.503906 196.65625 123.5625 196.878906 123.558594 C 197.316406 123.550781 197.503906 123.28125 197.339844 122.875 C 197.136719 122.378906 196.769531 121.980469 196.425781 121.578125 C 195.632812 120.644531 195.191406 119.550781 194.847656 118.335938 C 196.378906 118.355469 197.46875 118.941406 198.273438 120.15625 Z M 197.148438 128.523438 C 196.121094 128.664062 195.207031 128.339844 194.351562 127.804688 C 194.175781 127.691406 194.09375 127.5 194.199219 127.316406 C 194.308594 127.132812 194.519531 127.125 194.707031 127.195312 C 194.917969 127.277344 195.117188 127.382812 195.328125 127.480469 C 195.8125 127.703125 196.320312 127.835938 196.816406 127.835938 C 196.933594 127.824219 197.011719 127.816406 197.085938 127.808594 C 197.316406 127.78125 197.585938 127.761719 197.644531 128.042969 C 197.714844 128.40625 197.398438 128.488281 197.148438 128.523438 Z M 196.371094 129.84375 C 196.375 130.324219 195.878906 130.1875 195.578125 130.265625 C 195.507812 130.28125 195.429688 130.265625 195.257812 130.261719 C 194.742188 130.210938 194.164062 130.050781 193.636719 129.738281 C 193.421875 129.609375 193.328125 129.390625 193.46875 129.160156 C 193.585938 128.972656 193.78125 128.996094 193.964844 129.085938 C 194.476562 129.339844 195 129.53125 195.589844 129.523438 C 195.886719 129.523438 196.363281 129.316406 196.371094 129.84375 Z M 183.75 127.148438 C 183.605469 127.183594 183.453125 127.179688 183.316406 127.191406 C 182.78125 127.121094 182.269531 127.015625 181.808594 126.753906 C 181.585938 126.628906 181.535156 126.394531 181.640625 126.167969 C 181.703125 126.035156 181.871094 125.929688 182.015625 126.011719 C 182.578125 126.332031 183.203125 126.425781 183.820312 126.570312 C 183.898438 126.585938 183.984375 126.738281 183.996094 126.832031 C 184.019531 126.996094 183.90625 127.113281 183.75 127.148438 Z M 181.234375 122.003906 C 180.710938 121.921875 180.304688 121.660156 179.972656 121.292969 C 179.84375 121.148438 179.78125 120.957031 179.941406 120.789062 C 180.101562 120.617188 180.292969 120.679688 180.449219 120.789062 C 180.757812 121.011719 181.066406 121.210938 181.433594 121.332031 C 181.617188 121.394531 181.761719 121.535156 181.683594 121.761719 C 181.605469 121.980469 181.417969 122.003906 181.234375 122.003906 Z M 181.234375 122.003906 "/>
</g>
</g>
</svg>
